<svg width="1400" height="183" viewBox="0 0 1400 183" fill="none" xmlns="http://www.w3.org/2000/svg">
<g filter="url(#filter0_d)">
<path d="M-1314 125.605C-1249 84.7713 -1083 7.60471 -897 7.60471C-711 7.60471 -525 111.105 -435 125.605C-339 141.071 -124.7 104.405 14.5 61.6046C153.7 18.8046 319.167 62.7713 386 80.6046C483.167 95.7713 698.6 109.305 783 42.1046C867.4 -25.0954 1036.17 14.1046 1110 42.1046C1186.83 76.9379 1384.9 141.536 1548.5 80.6046C1744.5 7.60458 1966.5 -5.39532 2196.5 125.605C2341 207.907 2771.8 199.305 2929 42.1046" stroke="#FF2A75" stroke-width="2"/>
</g>
<defs>
<filter id="filter0_d" x="-1318.53" y="0" width="4252.24" height="182.042" filterUnits="userSpaceOnUse" color-interpolation-filters="sRGB">
<feFlood flood-opacity="0" result="BackgroundImageFix"/>
<feColorMatrix in="SourceAlpha" type="matrix" values="0 0 0 0 0 0 0 0 0 0 0 0 0 0 0 0 0 0 127 0" result="hardAlpha"/>
<feOffset/>
<feGaussianBlur stdDeviation="2"/>
<feComposite in2="hardAlpha" operator="out"/>
<feColorMatrix type="matrix" values="0 0 0 0 1 0 0 0 0 0.164706 0 0 0 0 0.458824 0 0 0 0.25 0"/>
<feBlend mode="normal" in2="BackgroundImageFix" result="effect1_dropShadow"/>
<feBlend mode="normal" in="SourceGraphic" in2="effect1_dropShadow" result="shape"/>
</filter>
</defs>
</svg>
