<svg width="814" height="809" viewBox="0 0 814 809" fill="none" xmlns="http://www.w3.org/2000/svg">
<g filter="url(#filter0_f)">
<path d="M503.442 294.855C504.285 263.304 470.658 242.672 442.912 257.717L243.789 365.691C216.044 380.736 214.989 420.174 241.891 436.68L434.961 555.139C461.863 571.644 496.545 552.838 497.388 521.288L503.442 294.855Z" fill="#2FF0B6" fill-opacity="0.5"/>
</g>
<path d="M528.361 293.359C529.204 261.808 495.577 241.176 467.832 256.221L268.708 364.195C240.963 379.24 239.909 418.678 266.81 435.184L459.88 553.643C486.782 570.149 521.464 551.343 522.307 519.792L528.361 293.359Z" fill="#2FF0B6"/>
<path d="M528.361 293.359C529.204 261.808 495.577 241.176 467.832 256.221L268.708 364.195C240.963 379.24 239.909 418.678 266.81 435.184L459.88 553.643C486.782 570.149 521.464 551.343 522.307 519.792L528.361 293.359Z" fill="url(#paint0_radial)"/>
<g clip-path="url(#clip0)">
<path d="M451.684 354.105C445.065 354.278 439.154 351.123 435.496 346.171C432.057 351.274 426.288 354.704 419.655 354.852C408.824 355.102 399.874 346.571 399.65 335.755L470.84 334.057C471.089 344.858 462.501 353.83 451.684 354.105Z" fill="white"/>
<path d="M441.888 341.286C445.533 341.205 448.437 338.169 448.364 334.529L435.138 334.835C435.2 338.514 438.219 341.382 441.888 341.286Z" fill="#433E44"/>
<path d="M409.874 342.058C406.229 342.139 403.21 339.272 403.123 335.607L416.35 335.301C416.397 338.955 413.519 341.977 409.874 342.058Z" fill="#433E44"/>
<path d="M463.846 379.951C477.465 372.088 487.551 358.968 488.601 345.062C488.687 344.116 487.967 343.272 487.01 343.227C486.064 343.143 485.216 343.865 485.17 344.821C483.602 365.493 460.318 384.21 436.362 384.077C412.322 385.354 388.266 367.766 385.803 347.198C385.696 346.265 384.83 345.571 383.87 345.694C382.91 345.817 382.238 346.669 382.359 347.628C385.024 369.87 410.802 388.885 436.424 387.525C446.06 387.567 455.615 384.703 463.846 379.951Z" fill="#433E44"/>
</g>
<defs>
<filter id="filter0_f" x="156.893" y="128.11" width="508.539" height="498.503" filterUnits="userSpaceOnUse" color-interpolation-filters="sRGB">
<feFlood flood-opacity="0" result="BackgroundImageFix"/>
<feBlend mode="normal" in="SourceGraphic" in2="BackgroundImageFix" result="shape"/>
<feGaussianBlur stdDeviation="25" result="effect1_foregroundBlur"/>
</filter>
<radialGradient id="paint0_radial" cx="0" cy="0" r="1" gradientUnits="userSpaceOnUse" gradientTransform="translate(495.618 535.6) rotate(165.244) scale(194.319)">
<stop stop-color="#00E7A1"/>
<stop offset="1" stop-color="#2FF0B6" stop-opacity="0"/>
</radialGradient>
<clipPath id="clip0">
<rect width="96.4023" height="70.3736" fill="white" transform="matrix(-0.866025 0.5 0.5 0.866025 462.608 299.406)"/>
</clipPath>
</defs>
</svg>
