<svg width="356" height="352" viewBox="0 0 356 352" fill="none" xmlns="http://www.w3.org/2000/svg">
<g filter="url(#filter0_f)">
<path d="M172.606 33.759C175.394 29.8059 181.257 29.8059 184.045 33.759L212.658 74.3172C214.344 76.7071 217.338 77.7969 220.166 77.0498L268.155 64.3724C272.832 63.1368 277.323 66.9049 276.918 71.7257L272.767 121.187C272.522 124.102 274.115 126.861 276.762 128.106L321.672 149.242C326.049 151.302 327.067 157.075 323.659 160.508L288.685 195.729C286.624 197.804 286.071 200.942 287.298 203.597L308.116 248.655C310.145 253.047 307.214 258.124 302.396 258.562L252.965 263.063C250.052 263.328 247.612 265.376 246.845 268.198L233.829 316.097C232.561 320.765 227.052 322.77 223.079 320.009L182.32 291.683C179.919 290.014 176.732 290.014 174.331 291.683L133.572 320.009C129.599 322.77 124.09 320.765 122.822 316.097L109.806 268.198C109.039 265.376 106.599 263.328 103.686 263.063L54.2551 258.562C49.4373 258.124 46.5062 253.047 48.5352 248.655L69.3533 203.597C70.58 200.942 70.0267 197.804 67.9659 195.729L32.9924 160.508C29.5837 157.075 30.6016 151.302 34.9789 149.242L79.8896 128.106C82.5359 126.861 84.129 124.102 83.8844 121.187L79.7327 71.7257C79.328 66.9049 83.8188 63.1368 88.496 64.3724L136.485 77.0498C139.313 77.7969 142.307 76.7071 143.993 74.3172L172.606 33.759Z" fill="#FF964A" fill-opacity="0.51"/>
</g>
<path d="M164.955 26.1078C167.743 22.1548 173.606 22.1548 176.394 26.1078L205.007 66.6661C206.693 69.056 209.687 70.1457 212.515 69.3987L260.504 56.7212C265.181 55.4856 269.672 59.2538 269.267 64.0746L265.116 113.536C264.871 116.45 266.464 119.21 269.11 120.455L314.021 141.59C318.398 143.65 319.416 149.424 316.008 152.856L281.034 188.077C278.973 190.153 278.42 193.291 279.647 195.946L300.465 241.004C302.494 245.396 299.563 250.473 294.745 250.911L245.314 255.412C242.401 255.677 239.961 257.725 239.194 260.547L226.178 308.446C224.91 313.114 219.401 315.119 215.428 312.358L174.669 284.032C172.268 282.363 169.081 282.363 166.68 284.032L125.921 312.358C121.948 315.119 116.439 313.114 115.171 308.446L102.155 260.547C101.388 257.725 98.9476 255.677 96.0349 255.412L46.604 250.911C41.7862 250.473 38.8551 245.396 40.8841 241.004L61.7022 195.946C62.9289 193.291 62.3756 190.153 60.3148 188.077L25.3413 152.856C21.9326 149.424 22.9505 143.65 27.3278 141.59L72.2384 120.455C74.8848 119.21 76.4779 116.45 76.2332 113.536L72.0816 64.0746C71.6769 59.2538 76.1676 55.4856 80.8449 56.7212L128.834 69.3987C131.662 70.1457 134.656 69.056 136.342 66.6661L164.955 26.1078Z" fill="#FF964A"/>
<path d="M164.955 26.1078C167.743 22.1548 173.606 22.1548 176.394 26.1078L205.007 66.6661C206.693 69.056 209.687 70.1457 212.515 69.3987L260.504 56.7212C265.181 55.4856 269.672 59.2538 269.267 64.0746L265.116 113.536C264.871 116.45 266.464 119.21 269.11 120.455L314.021 141.59C318.398 143.65 319.416 149.424 316.008 152.856L281.034 188.077C278.973 190.153 278.42 193.291 279.647 195.946L300.465 241.004C302.494 245.396 299.563 250.473 294.745 250.911L245.314 255.412C242.401 255.677 239.961 257.725 239.194 260.547L226.178 308.446C224.91 313.114 219.401 315.119 215.428 312.358L174.669 284.032C172.268 282.363 169.081 282.363 166.68 284.032L125.921 312.358C121.948 315.119 116.439 313.114 115.171 308.446L102.155 260.547C101.388 257.725 98.9476 255.677 96.0349 255.412L46.604 250.911C41.7862 250.473 38.8551 245.396 40.8841 241.004L61.7022 195.946C62.9289 193.291 62.3756 190.153 60.3148 188.077L25.3413 152.856C21.9326 149.424 22.9505 143.65 27.3278 141.59L72.2384 120.455C74.8848 119.21 76.4779 116.45 76.2332 113.536L72.0816 64.0746C71.6769 59.2538 76.1676 55.4856 80.8449 56.7212L128.834 69.3987C131.662 70.1457 134.656 69.056 136.342 66.6661L164.955 26.1078Z" fill="url(#paint0_radial)"/>
<g clip-path="url(#clip0)">
<path d="M134.223 178.287C145.945 178.287 155.447 168.779 155.447 157.05C155.447 145.32 145.945 135.812 134.223 135.812C122.502 135.812 113 145.32 113 157.05C113 168.779 122.502 178.287 134.223 178.287Z" fill="white"/>
<path d="M166.023 164.475C177.744 164.475 187.246 154.967 187.246 143.238C187.246 131.508 177.744 122 166.023 122C154.301 122 144.799 131.508 144.799 143.238C144.799 154.967 154.301 164.475 166.023 164.475Z" fill="white"/>
<path d="M135.299 149.874C136.446 152.457 135.227 155.507 132.646 156.619C130.029 157.767 127.017 156.583 125.87 153.964C124.759 151.345 125.942 148.332 128.559 147.22C131.14 146.072 134.188 147.255 135.299 149.874Z" fill="#433E44"/>
<path d="M167.098 136.063C168.246 138.682 167.027 141.695 164.446 142.807C161.828 143.955 158.817 142.736 157.706 140.153C156.558 137.534 157.777 134.52 160.359 133.408C162.94 132.26 165.987 133.444 167.098 136.063Z" fill="#433E44"/>
<path d="M122.966 202C122.285 202 121.604 201.606 121.317 200.924C120.923 200.027 121.353 198.951 122.249 198.556L204.49 162.825C205.422 162.431 206.462 162.861 206.856 163.758C207.251 164.655 206.821 165.731 205.924 166.126L123.683 201.857C123.468 201.964 123.217 202 122.966 202Z" fill="#433E44"/>
</g>
<defs>
<filter id="filter0_f" x="0.958252" y="0.794189" width="354.735" height="350.471" filterUnits="userSpaceOnUse" color-interpolation-filters="sRGB">
<feFlood flood-opacity="0" result="BackgroundImageFix"/>
<feBlend mode="normal" in="SourceGraphic" in2="BackgroundImageFix" result="shape"/>
<feGaussianBlur stdDeviation="15" result="effect1_foregroundBlur"/>
</filter>
<radialGradient id="paint0_radial" cx="0" cy="0" r="1" gradientUnits="userSpaceOnUse" gradientTransform="translate(183.5 313.5) rotate(-79.6057) scale(171.82)">
<stop stop-color="#E06106"/>
<stop offset="1" stop-color="#FF964A" stop-opacity="0"/>
</radialGradient>
<clipPath id="clip0">
<rect width="94" height="80" fill="white" transform="translate(113 122)"/>
</clipPath>
</defs>
</svg>
