<svg width="335" height="417" viewBox="0 0 335 417" fill="none" xmlns="http://www.w3.org/2000/svg">
<g filter="url(#filter0_f)">
<rect x="158.385" y="366.61" width="296.725" height="113.427" transform="rotate(-105 158.385 366.61)" fill="#C957FF" fill-opacity="0.5"/>
</g>
<rect x="143.851" y="362.715" width="296.725" height="113.427" rx="10" transform="rotate(-105 143.851 362.715)" fill="#C957FF"/>
<rect x="143.851" y="362.715" width="296.725" height="113.427" rx="10" transform="rotate(-105 143.851 362.715)" fill="url(#paint0_radial)" fill-opacity="0.2"/>
<g clip-path="url(#clip0)">
<path d="M99.4437 98.4398C98.2708 98.4398 97.2445 97.619 97.0491 96.4604C96.8047 95.1569 97.6844 93.9017 99.0038 93.6603L125.882 88.8325C127.201 88.5911 128.472 89.4601 128.716 90.7636C128.961 92.0671 128.081 93.3223 126.762 93.5637L99.8835 98.3915C99.7369 98.4398 99.5903 98.4398 99.4437 98.4398Z" fill="#091A2C"/>
<path d="M143.377 98.4395C142.253 98.4395 141.227 97.6188 140.982 96.4601C140.738 95.1566 141.617 93.9014 142.937 93.66L169.815 88.8323C171.086 88.5909 172.405 89.4599 172.649 90.7634C172.894 92.0669 172.014 93.3221 170.695 93.5635L143.817 98.3912C143.67 98.4395 143.523 98.4395 143.377 98.4395Z" fill="#091A2C"/>
<path d="M121.483 133.586C129.058 133.73 135.851 130.158 140.005 124.509C143.963 130.254 150.609 134.117 158.184 134.262C170.597 134.503 180.81 124.751 181.055 112.488L99.4432 110.992C99.1988 123.254 109.07 133.393 121.483 133.586Z" fill="white"/>
<path d="M132.674 119.054C128.472 118.958 125.149 115.578 125.246 111.426L140.396 111.716C140.298 115.82 136.877 119.102 132.674 119.054Z" fill="#091A2C"/>
<path d="M169.375 119.73C173.578 119.826 176.999 116.544 177.096 112.392L161.947 112.102C161.849 116.254 165.172 119.633 169.375 119.73Z" fill="#091A2C"/>
<path d="M154.03 145.848H140.396H126.712C125.148 145.848 123.927 147.103 123.927 148.6V153.717C123.927 162.214 130.231 169.794 138.783 170.615C139.321 170.663 139.858 170.711 140.396 170.711C140.933 170.711 141.471 170.711 142.008 170.615C150.56 169.794 156.865 162.214 156.865 153.717V148.6C156.865 147.103 155.594 145.848 154.03 145.848Z" fill="#171517"/>
<path d="M152.711 164.918C150.121 160.524 145.674 157.338 140.298 156.855C139.76 156.807 139.223 156.759 138.685 156.759C138.148 156.759 137.61 156.759 137.073 156.855C132.723 157.29 129.009 159.414 126.321 162.552C128.911 166.945 133.358 170.132 138.734 170.614C139.272 170.663 139.809 170.711 140.347 170.711C140.884 170.711 141.422 170.711 141.959 170.614C146.358 170.228 150.072 168.056 152.711 164.918Z" fill="#FF99C0"/>
</g>
<defs>
<filter id="filter0_f" x="31.5869" y="0.638428" width="286.36" height="415.971" filterUnits="userSpaceOnUse" color-interpolation-filters="sRGB">
<feFlood flood-opacity="0" result="BackgroundImageFix"/>
<feBlend mode="normal" in="SourceGraphic" in2="BackgroundImageFix" result="shape"/>
<feGaussianBlur stdDeviation="25" result="effect1_foregroundBlur"/>
</filter>
<radialGradient id="paint0_radial" cx="0" cy="0" r="1" gradientUnits="userSpaceOnUse" gradientTransform="translate(142.761 365.683) rotate(36.4677) scale(185.842 486.162)">
<stop/>
<stop offset="1" stop-opacity="0"/>
</radialGradient>
<clipPath id="clip0">
<rect width="84.0551" height="81.9271" fill="white" transform="translate(96.9998 88.7839)"/>
</clipPath>
</defs>
</svg>
